<svg width="33" height="44" viewBox="0 0 33 44" fill="none" xmlns="http://www.w3.org/2000/svg">
<g clip-path="url(#clip0_214_1720)">
<path d="M32.1641 16C32.1641 11.7565 30.4698 7.68687 27.4538 4.68629C24.4378 1.68571 20.3473 0 16.0821 0C11.8168 0 7.72629 1.68571 4.71032 4.68629C1.69436 7.68687 0 11.7565 0 16C0 16.2133 3.93012e-07 16.4267 0.0171546 16.64V16H16.0992V32C20.3615 31.9955 24.4476 30.3078 27.4598 27.3077C30.4721 24.3076 32.1641 20.2405 32.1641 16V16Z" fill="#61DCDF"/>
<path d="M0 17V44H16.0821V32.3071H16.0692C11.9153 32.3071 7.9226 30.7135 4.92721 27.8602C1.93183 25.0069 0.166154 21.1151 0 17Z" fill="#886CFF"/>
<path d="M0 16V16.64C0.16611 20.7693 1.93131 24.6746 4.9259 27.5378C7.92049 30.401 11.9122 32 16.0649 32H16.0821V16H0Z" fill="#F9E492"/>
</g>
<defs>
<clipPath id="clip0_214_1720">
<rect width="32.1641" height="44" fill="white"/>
</clipPath>
</defs>
</svg>
